<?xml version="1.0" standalone="no"?>
<!DOCTYPE svg PUBLIC "-//W3C//DTD SVG 20010904//EN"
 "http://www.w3.org/TR/2001/REC-SVG-20010904/DTD/svg10.dtd">
<svg version="1.0" xmlns="http://www.w3.org/2000/svg"
 width="512.000000pt" height="512.000000pt" viewBox="0 0 512.000000 512.000000"
 preserveAspectRatio="xMidYMid meet">
<metadata>
Created by potrace 1.14, written by Peter Selinger 2001-2017
</metadata>
<g transform="translate(0.000000,512.000000) scale(0.100000,-0.100000)"
fill="#000000" stroke="none">
<path d="M799 4145 c-14 -8 -39 -31 -55 -52 -16 -21 -102 -118 -191 -215
l-162 -178 -55 -172 c-249 -783 -354 -1364 -326 -1803 18 -290 95 -488 241
-619 170 -153 444 -191 632 -88 66 35 177 140 232 217 104 146 229 461 289
728 l7 28 47 -42 c66 -59 192 -116 285 -129 167 -24 333 35 452 158 l50 52
315 0 315 0 44 -46 c84 -90 209 -151 341 -169 121 -15 302 45 402 134 l47 42
7 -28 c60 -267 185 -582 289 -728 97 -136 238 -240 363 -266 68 -14 216 -6
283 15 282 88 434 334 459 741 28 440 -77 1019 -326 1803 l-55 173 -162 177
c-89 97 -175 194 -191 215 -50 65 -57 67 -325 67 l-239 0 -110 -55 -110 -55
-1032 0 -1032 0 -110 55 -110 55 -241 0 c-189 -1 -248 -4 -268 -15z m330 -641
c32 -23 51 -74 51 -139 l0 -55 60 0 c35 0 74 -7 90 -15 32 -17 60 -61 60 -95
0 -34 -28 -78 -60 -95 -16 -8 -55 -15 -90 -15 l-60 0 0 -55 c0 -103 -39 -155
-116 -155 -34 0 -49 6 -73 31 -29 29 -31 35 -31 105 l0 74 -65 0 c-79 0 -117
17 -139 64 -20 42 -20 50 0 92 22 47 60 64 139 64 l65 0 0 74 c0 70 2 76 31
105 24 25 39 31 73 31 23 0 52 -7 65 -16z m3000 -15 c60 -59 34 -155 -49 -180
-33 -10 -43 -9 -71 7 -18 11 -42 35 -53 53 -16 28 -17 38 -7 71 25 83 121 109
180 49z m-228 -202 c65 -43 62 -137 -5 -178 -17 -10 -41 -19 -54 -19 -55 0
-112 56 -112 110 0 33 28 78 58 94 39 22 74 19 113 -7z m426 3 c69 -42 63
-151 -10 -186 -75 -36 -157 16 -157 98 0 32 7 47 34 74 40 40 83 45 133 14z
m-233 -204 c45 -19 66 -52 66 -102 0 -122 -172 -145 -210 -28 -14 41 -2 79 33
112 38 34 63 38 111 18z"/>
</g>
</svg>
